<svg width="1024" height="1024" viewBox="0 0 1024 1024" fill="none" xmlns="http://www.w3.org/2000/svg">
<path d="M8 504H42.667V512H0V469.333H8V504ZM213.333 512H128V504H213.333V512ZM384 512H298.667V504H384V512ZM512 512H469.333V504H504V469.333H512V512ZM8 384H0V298.667H8V384ZM512 384H504V298.667H512V384ZM8 213.333H0V128H8V213.333ZM512 213.333H504V128H512V213.333ZM42.667 8H8V42.667H0V0H42.667V8ZM512 42.667H504V8H469.333V0H512V42.667ZM213.333 8H128V0H213.333V8ZM384 8H298.667V0H384V8Z" fill="black"/>
</svg>
