<svg width="18" height="18" viewBox="0 0 18 18" fill="none" xmlns="http://www.w3.org/2000/svg">
<path d="M8 8H10V10H8V8Z" fill="white"/>
<path d="M10 6H12V8H10V6Z" fill="white"/>
<path d="M6 10H8V12H6V10Z" fill="white"/>
<path d="M4 12H6V14H4V12Z" fill="white"/>
<path d="M12 12H14V14H12V12Z" fill="white"/>
<path d="M10 10H12V12H10V10Z" fill="white"/>
<path d="M6 6H8V8H6V6Z" fill="white"/>
<path d="M4 4H6V6H4V4Z" fill="white"/>
<path d="M12 4H14V6H12V4Z" fill="white"/>
<path d="M14 2H16V4H14V2Z" fill="white"/>
<path d="M2 2H4V4H2V2Z" fill="white"/>
<path d="M2 14H4V16H2V14Z" fill="white"/>
<path d="M14 14H16V16H14V14Z" fill="white"/>
<path d="M16 16H18V18H16V16Z" fill="white"/>
<path d="M0 16H2V18H0V16Z" fill="white"/>
<path d="M0 0H2V2H0V0Z" fill="white"/>
<path d="M16 0H18V2H16V0Z" fill="white"/>
</svg>
